HIERARCHY
ROOT Hips
{
	OFFSET 0.000000 0.000000 0.000000
	CHANNELS 6 Xposition Yposition Zposition Xrotation Yrotation Zrotation
	JOINT LeftUpLeg_virtual
	{
		OFFSET 0.000000 0.000000 0.000000
		CHANNELS 3 Xrotation Yrotation Zrotation
		JOINT LeftUpLeg
		{
			OFFSET 10.205400 -3.823500 0.155100
			CHANNELS 3 Xrotation Yrotation Zrotation
			JOINT LeftLeg
			{
				OFFSET 0.708757 -12.982077 0.567790
				CHANNELS 3 Xrotation Yrotation Zrotation
				JOINT LeftFoot
				{
					OFFSET -0.708756 -10.717838 -2.184338
					CHANNELS 3 Xrotation Yrotation Zrotation
					JOINT LeftToeBase
					{
						OFFSET 0.108149 -7.191104 7.560241
						CHANNELS 3 Xrotation Yrotation Zrotation
						JOINT LeftToe_End
						{
							OFFSET 0.070230 0.081724 4.490308
							CHANNELS 3 Xrotation Yrotation Zrotation
							End Site
							{
								OFFSET 0 0 0
							}
						}
					}
				}
			}
		}
	}
	JOINT RightUpLeg_virtual
	{
		OFFSET 0.000000 0.000000 0.000000
		CHANNELS 3 Xrotation Yrotation Zrotation
		JOINT RightUpLeg
		{
			OFFSET -10.205400 -3.823500 0.005500
			CHANNELS 3 Xrotation Yrotation Zrotation
			JOINT RightLeg
			{
				OFFSET -0.708756 -12.982134 0.610632
				CHANNELS 3 Xrotation Yrotation Zrotation
				JOINT RightFoot
				{
					OFFSET 0.708754 -10.717769 -1.945823
					CHANNELS 3 Xrotation Yrotation Zrotation
					JOINT RightToeBase
					{
						OFFSET -0.108140 -7.191069 7.372968
						CHANNELS 3 Xrotation Yrotation Zrotation
						JOINT RightToe_End
						{
							OFFSET -0.070227 0.081735 4.479403
							CHANNELS 3 Xrotation Yrotation Zrotation
							End Site
							{
								OFFSET 0 0 0
							}
						}
					}
				}
			}
		}
	}
	JOINT Spine_virtual
	{
		OFFSET 0.000000 0.000000 0.000000
		CHANNELS 3 Xrotation Yrotation Zrotation
		JOINT Spine
		{
			OFFSET 0.000000 6.876099 0.125700
			CHANNELS 3 Xrotation Yrotation Zrotation
			JOINT Spine1
			{
				OFFSET 0.000000 5.730043 0.104720
				CHANNELS 3 Xrotation Yrotation Zrotation
				JOINT Spine1_split
				{
					OFFSET 0.000000 5.730043 0.104720
					CHANNELS 3 Xrotation Yrotation Zrotation
					JOINT Spine2
					{
						OFFSET 0.000000 5.730043 0.104720
						CHANNELS 3 Xrotation Yrotation Zrotation
						JOINT Neck_virtual
						{
							OFFSET 0.000000 0.000000 0.000000
							CHANNELS 3 Xrotation Yrotation Zrotation
							JOINT Neck
							{
								OFFSET 0.000000 10.314075 0.188496
								CHANNELS 3 Xrotation Yrotation Zrotation
								JOINT Head
								{
									OFFSET 0.000000 7.643700 -2.377400
									CHANNELS 3 Xrotation Yrotation Zrotation
									JOINT HeadTop_End
									{
										OFFSET 0.000000 43.788605 -13.619600
										CHANNELS 3 Xrotation Yrotation Zrotation
										End Site
										{
											OFFSET 0 0 0
										}
									}
								}
							}
						}
						JOINT LeftShoulder_virtual
						{
							OFFSET 0.000000 0.000000 0.000000
							CHANNELS 3 Xrotation Yrotation Zrotation
							JOINT LeftShoulder
							{
								OFFSET 2.196100 4.412489 0.087492
								CHANNELS 3 Xrotation Yrotation Zrotation
								JOINT LeftShoulder_split
								{
									OFFSET 2.196100 4.412489 0.087492
									CHANNELS 3 Xrotation Yrotation Zrotation
									JOINT LeftArm
									{
										OFFSET 8.771219 -2.981674 -0.026999
										CHANNELS 3 Xrotation Yrotation Zrotation
										JOINT LeftForeArm
										{
											OFFSET 8.512804 0.000000 -0.000000
											CHANNELS 3 Xrotation Yrotation Zrotation
											JOINT LeftHand
											{
												OFFSET 18.484802 0.000000 -0.000000
												CHANNELS 3 Xrotation Yrotation Zrotation
												End Site
												{
													OFFSET 0 0 0
												}
											}
										}
									}
								}
							}
						}
						JOINT RightShoulder_virtual
						{
							OFFSET 0.000000 0.000000 0.000000
							CHANNELS 3 Xrotation Yrotation Zrotation
							JOINT RightShoulder
							{
								OFFSET -2.196100 4.412496 0.070690
								CHANNELS 3 Xrotation Yrotation Zrotation
								JOINT RightShoulder_split
								{
									OFFSET -2.196100 4.412496 0.070690
									CHANNELS 3 Xrotation Yrotation Zrotation
									JOINT RightArm
									{
										OFFSET -8.771282 -2.981682 -0.094208
										CHANNELS 3 Xrotation Yrotation Zrotation
										JOINT RightForeArm
										{
											OFFSET -8.494598 0.000000 0.000000
											CHANNELS 3 Xrotation Yrotation Zrotation
											JOINT RightHand
											{
												OFFSET -18.483803 0.000000 0.000001
												CHANNELS 3 Xrotation Yrotation Zrotation
												End Site
												{
													OFFSET 0 0 0
												}
											}
										}
									}
								}
							}
						}
					}
				}
			}
		}
	}
}
MOTION
Frames: 7
Frame Time: 0.03333333
7.393621 20.659241 -20.903782 0.000000 0.000000 0.000000 39.529419 -18.372142 12.880795 -56.303623 -13.536961 0.969691 92.439958 -6.151523 -2.211500 -5.303692 5.073206 -20.985208 -40.790771 2.319284 -17.898097 0.000000 0.000000 0.000000 41.246163 -22.268160 13.368989 -76.510194 -11.603071 -17.899233 103.965356 -9.373994 3.374797 -47.461516 -28.144988 11.130389 -18.690205 9.640896 -12.869130 0.000000 0.000000 0.000000 43.894269 -16.386449 13.591175 36.034896 8.290831 4.669920 2.170250 1.234988 0.847871 0.093373 -0.122503 0.176467 0.000000 0.000000 0.000000 4.417597 2.785437 1.814865 -14.314102 2.825053 7.654239 -24.733264 -30.647021 -25.580957 0.000000 0.000000 0.000000 4.395842 1.436839 0.362573 3.045553 -22.464146 -0.266000 3.467938 2.170946 -6.718005 -25.428583 -19.896811 -48.654832 -9.491613 -32.626263 0.478642 0.000000 0.000000 0.000000 6.042612 2.102568 1.951686 2.026677 22.444478 2.523576 0.333816 -0.165791 -0.671051 -60.163380 38.732305 38.443050 -33.829568 15.158242 14.492973 0.000000 0.000000 0.000000 
7.516260 20.790661 -20.637180 0.000000 0.000000 0.000000 38.725062 -19.859743 13.355212 -60.193030 -14.793232 0.569794 95.956474 -5.498430 -1.890255 -1.645681 5.676120 -22.068051 -39.246117 2.572514 -18.461026 0.000000 0.000000 0.000000 40.440071 -23.963673 13.908072 -75.116180 -12.366662 -16.988315 102.851475 -9.466839 2.373813 -47.472007 -29.129179 12.065258 -18.674080 9.583636 -12.050177 0.000000 0.000000 0.000000 43.202586 -17.839824 13.919265 36.061975 8.365146 4.241328 2.579845 1.177136 0.554311 0.107000 -0.190615 0.197275 0.000000 0.000000 0.000000 4.644843 2.732283 1.515868 -14.212050 3.009277 7.551807 -24.865975 -30.087752 -24.793191 0.000000 0.000000 0.000000 4.655340 1.358794 0.001552 3.086377 -23.127852 -0.512483 2.550988 2.116452 -6.902602 -23.102662 -17.576611 -47.591761 -11.457011 -35.579371 -0.853672 0.000000 0.000000 0.000000 6.215932 2.027551 1.679603 1.932003 21.757419 2.373371 -0.178708 -0.272782 -0.378945 -57.748976 38.739119 38.759097 -34.537330 16.579097 16.047623 0.000000 0.000000 0.000000 
7.623230 20.939449 -20.259548 0.000000 0.000000 0.000000 38.016362 -21.071356 13.868762 -64.017437 -15.820620 0.281069 98.932292 -4.980804 -1.250657 1.710094 5.860393 -23.343773 -38.171356 2.722809 -18.765969 0.000000 0.000000 0.000000 39.856066 -25.562278 14.654951 -73.748995 -13.125862 -16.182900 101.602657 -9.454829 1.172210 -47.797917 -30.180400 12.990517 -18.141956 9.553189 -11.372203 0.000000 0.000000 0.000000 42.665736 -19.031344 14.326277 35.978192 8.429813 3.788075 3.020251 1.178535 0.266245 0.103876 -0.277484 0.213958 0.000000 0.000000 0.000000 5.010363 2.749619 1.202622 -14.117186 3.319892 7.442090 -25.402457 -29.122704 -24.007724 0.000000 0.000000 0.000000 4.958340 1.338899 -0.341673 3.059474 -23.833686 -0.860401 1.687454 1.922083 -6.798889 -21.249306 -15.411251 -46.143085 -13.096953 -38.145148 -2.084172 0.000000 0.000000 0.000000 6.471495 2.005572 1.402299 1.950790 21.003639 1.918556 -0.737599 -0.447234 -0.195590 -55.048869 39.134115 38.475309 -35.331141 18.413085 17.961784 0.000000 0.000000 0.000000 
7.717863 21.116850 -19.779366 0.000000 0.000000 0.000000 37.438808 -21.987217 14.386953 -67.866030 -16.601270 0.385684 101.428316 -4.678791 -0.404009 4.591178 5.762877 -24.655380 -37.134304 2.761272 -18.908054 0.000000 0.000000 0.000000 39.552557 -26.954505 15.528287 -72.358887 -13.826205 -15.521156 100.179675 -9.204394 -0.222571 -48.108615 -31.352908 14.296663 -17.302527 9.546791 -10.793831 0.000000 0.000000 0.000000 42.210716 -19.912076 14.786875 35.788590 8.455292 3.355427 3.475119 1.238865 -0.008468 0.105814 -0.377693 0.211195 0.000000 0.000000 0.000000 5.482641 2.830249 0.890482 -13.971867 3.713985 7.338006 -26.415478 -27.832763 -23.296421 0.000000 0.000000 0.000000 5.274596 1.377042 -0.656118 2.984672 -24.561003 -1.238176 0.919553 1.719902 -6.555025 -19.854255 -13.505893 -44.292271 -14.298589 -40.346050 -3.095559 0.000000 0.000000 0.000000 6.786477 2.031461 1.129302 2.078114 20.166448 1.184917 -1.417367 -0.689257 0.031241 -52.362037 39.907921 37.713351 -36.103277 20.266874 20.031879 0.000000 0.000000 0.000000 
7.809865 21.360796 -19.181538 0.000000 0.000000 0.000000 37.099907 -22.699898 14.927069 -71.741910 -17.324061 1.004413 103.369852 -4.596785 0.471383 7.112321 5.528631 -25.968326 -35.840434 2.725572 -18.960233 0.000000 0.000000 0.000000 39.435730 -27.996349 16.414792 -70.683572 -14.424806 -14.930534 98.505835 -8.735055 -1.777479 -48.427390 -32.730547 15.974674 -16.141660 9.499397 -10.243519 0.000000 0.000000 0.000000 41.801622 -20.546841 15.307323 35.557958 8.403393 2.964696 3.915954 1.330186 -0.261537 0.112098 -0.458923 0.201242 0.000000 0.000000 0.000000 6.020174 2.936575 0.580638 -13.751807 4.158229 7.259755 -27.877180 -26.371533 -22.666249 0.000000 0.000000 0.000000 5.591608 1.445877 -0.924650 2.901453 -25.284377 -1.546072 0.388062 1.596890 -6.183007 -18.862464 -11.933409 -42.093769 -15.004840 -42.386064 -3.849424 0.000000 0.000000 0.000000 7.116270 2.070442 0.872151 2.266517 19.177262 0.187014 -2.002662 -0.895004 0.316365 -50.177896 40.978280 36.874880 -36.758412 21.948787 22.077695 0.000000 0.000000 0.000000 
7.898539 21.680092 -18.474918 0.000000 0.000000 0.000000 36.929187 -23.257740 15.432761 -75.600857 -18.138901 2.115228 104.810844 -4.569848 1.323995 9.424599 5.463216 -27.257608 -34.150591 2.617446 -18.895401 0.000000 0.000000 0.000000 39.333075 -28.503037 17.087603 -68.403716 -14.935120 -14.295304 96.501946 -8.181036 -3.409048 -49.210041 -34.332417 17.482557 -14.613302 9.362404 -9.625002 0.000000 0.000000 0.000000 41.319789 -20.992728 15.831024 35.363236 8.212203 2.661028 4.317441 1.409723 -0.484801 0.133765 -0.505737 0.198478 0.000000 0.000000 0.000000 6.584310 3.020433 0.283117 -13.412503 4.608768 7.224589 -29.623797 -24.961042 -22.071685 0.000000 0.000000 0.000000 5.897973 1.509471 -1.137109 2.828799 -25.956145 -1.728012 0.131165 1.568596 -5.748813 -18.320958 -10.849749 -39.658660 -15.217960 -44.445100 -4.329270 0.000000 0.000000 0.000000 7.426218 2.083907 0.629935 2.466949 18.019123 -1.049447 -2.449071 -0.962713 0.586144 -49.112024 42.089811 36.528818 -37.241576 23.386568 23.971326 0.000000 0.000000 0.000000 
7.956359 22.078163 -17.661564 0.000000 0.000000 0.000000 36.888062 -23.733538 15.924250 -79.095421 -18.964529 3.562884 105.564644 -4.297158 2.077811 11.267474 5.866001 -28.241871 -31.919772 2.373330 -18.681537 0.000000 0.000000 0.000000 39.099824 -28.544032 17.482692 -65.319852 -15.413065 -13.576959 94.135866 -7.703015 -4.955167 -50.773369 -36.085730 18.233234 -12.865492 9.126665 -8.846138 0.000000 0.000000 0.000000 40.740641 -21.350415 16.343915 35.275048 7.825197 2.450723 4.681917 1.443657 -0.693174 0.141879 -0.506111 0.210828 0.000000 0.000000 0.000000 7.122835 3.048221 -0.004140 -12.868747 5.038810 7.225030 -31.353505 -23.892142 -21.404848 0.000000 0.000000 0.000000 6.198836 1.529514 -1.302231 2.777108 -26.506569 -1.752675 -0.028080 1.581258 -5.467006 -18.221589 -10.327265 -37.080803 -14.922162 -46.514124 -4.486875 0.000000 0.000000 0.000000 7.695090 2.038575 0.383702 2.623179 16.691290 -2.517766 -2.691410 -0.796550 0.810458 -49.442127 43.073451 37.079946 -37.491960 24.642969 25.611714 0.000000 0.000000 0.000000 
